<svg id="visual" viewBox="0 0 960 540" width="960" height="540" xmlns="http://www.w3.org/2000/svg" xmlns:xlink="http://www.w3.org/1999/xlink" version="1.1"><rect width="960" height="540" fill="#121212"></rect><g><g transform="translate(588 254)"><path d="M0 -129.7L101.4 -80.9L126.5 28.9L56.3 116.9L-56.3 116.9L-126.5 28.9L-101.4 -80.9Z" stroke="#002e1b" fill="none" stroke-width="2"></path></g><g transform="translate(194 357)"><path d="M0 -122L95.4 -76.1L118.9 27.1L52.9 109.9L-52.9 109.9L-118.9 27.1L-95.4 -76.1Z" stroke="#002e1b" fill="none" stroke-width="2"></path></g><g transform="translate(842 4)"><path d="M0 -109L85.2 -68L106.3 24.3L47.3 98.2L-47.3 98.2L-106.3 24.3L-85.2 -68Z" stroke="#002e1b" fill="none" stroke-width="2"></path></g><g transform="translate(347 23)"><path d="M0 -81L63.3 -50.5L79 18L35.1 73L-35.1 73L-79 18L-63.3 -50.5Z" stroke="#002e1b" fill="none" stroke-width="2"></path></g><g transform="translate(846 437)"><path d="M0 -119L93 -74.2L116 26.5L51.6 107.2L-51.6 107.2L-116 26.5L-93 -74.2Z" stroke="#002e1b" fill="none" stroke-width="2"></path></g><g transform="translate(24 60)"><path d="M0 -88L68.8 -54.9L85.8 19.6L38.2 79.3L-38.2 79.3L-85.8 19.6L-68.8 -54.9Z" stroke="#002e1b" fill="none" stroke-width="2"></path></g></g></svg>