<svg id="visual" viewBox="0 0 900 600" width="900" height="600" xmlns="http://www.w3.org/2000/svg" xmlns:xlink="http://www.w3.org/1999/xlink" version="1.1"><rect width="900" height="600" fill="#121212"></rect><g><g transform="translate(484 297)"><path d="M0 -149.9L117.2 -93.5L146.2 33.4L65 135.1L-65 135.1L-146.2 33.4L-117.2 -93.5Z" fill="none" stroke="#002818" stroke-width="2"></path></g><g transform="translate(29 251)"><path d="M0 -100L78.2 -62.3L97.5 22.3L43.4 90.1L-43.4 90.1L-97.5 22.3L-78.2 -62.3Z" fill="none" stroke="#002818" stroke-width="2"></path></g><g transform="translate(789 213)"><path d="M0 -126L98.5 -78.6L122.8 28L54.7 113.5L-54.7 113.5L-122.8 28L-98.5 -78.6Z" fill="none" stroke="#002818" stroke-width="2"></path></g><g transform="translate(783 555)"><path d="M0 -124L96.9 -77.3L120.9 27.6L53.8 111.7L-53.8 111.7L-120.9 27.6L-96.9 -77.3Z" stroke="#002818" fill="none" stroke-width="2"></path></g><g transform="translate(306 571)"><path d="M0 -147L114.9 -91.7L143.3 32.7L63.8 132.4L-63.8 132.4L-143.3 32.7L-114.9 -91.7Z" stroke="#002818" fill="none" stroke-width="2"></path></g></g></svg>