<svg id="visual" viewBox="0 0 960 540" width="960" height="540" xmlns="http://www.w3.org/2000/svg" xmlns:xlink="http://www.w3.org/1999/xlink" version="1.1"><path d="M0 116L22.8 114C45.7 112 91.3 108 137 109.5C182.7 111 228.3 118 274 114.2C319.7 110.3 365.3 95.7 411.2 101.3C457 107 503 133 548.8 139.3C594.7 145.7 640.3 132.3 686 138.7C731.7 145 777.3 171 823 178.5C868.7 186 914.3 175 937.2 169.5L960 164L960 0L937.2 0C914.3 0 868.7 0 823 0C777.3 0 731.7 0 686 0C640.3 0 594.7 0 548.8 0C503 0 457 0 411.2 0C365.3 0 319.7 0 274 0C228.3 0 182.7 0 137 0C91.3 0 45.7 0 22.8 0L0 0Z" fill="#f8f8ff" stroke-linecap="round" stroke-linejoin="miter"></path></svg>